<svg width="130" height="80" viewBox="0 0 130 80" fill="none" xmlns="http://www.w3.org/2000/svg">
<path d="M65.0808 0C42.9485 0 25.0227 17.8998 25.0227 40C25.0227 62.1002 42.9485 80 65.0808 80C87.2131 80 105.139 62.1002 105.139 40C105.139 17.8998 87.2131 0 65.0808 0ZM65.0808 72C47.3748 72 33.0343 57.6804 33.0343 40C33.0343 22.3196 47.3748 8 65.0808 8C82.7869 8 97.1273 22.3196 97.1273 40C97.1273 57.6804 82.7869 72 65.0808 72Z" fill="#B2935B"/>
<path d="M19.4037 50.674C18.8903 51.2647 18.3388 51.6887 17.7473 51.944C17.1557 52.2024 16.4395 52.3322 15.6007 52.3322C14.4936 52.3322 13.62 52.098 12.9809 51.6318C12.3407 51.1655 11.9255 50.3691 11.7343 49.2436L11.2188 46.387C10.9706 44.9978 10.6705 43.9735 10.3188 43.3153C9.96594 42.6571 9.37859 42.328 8.55672 42.328H6.69748V48.9018C6.69748 49.6254 6.74924 50.1497 6.85383 50.4757C6.96052 50.7995 7.15595 51.0189 7.44118 51.1339C7.72851 51.2467 8.19544 51.3227 8.84406 51.3617V51.9313C7.81302 51.8754 6.37212 51.847 4.52133 51.847C2.48145 51.847 0.973987 51.8754 0 51.9313V51.3617C0.630662 51.3227 1.09441 51.2467 1.3902 51.1339C1.68599 51.0189 1.88565 50.7995 1.99023 50.4757C2.09376 50.1497 2.14657 49.6254 2.14657 48.9018V34.7288C2.14657 34.0031 2.09376 33.4788 1.99023 33.155C1.88565 32.8322 1.68599 32.6138 1.3902 32.501C1.09441 32.386 0.630662 32.309 0 32.2689V31.6993C0.973987 31.7562 2.42546 31.7837 4.35231 31.7837L7.52991 31.7541C7.91021 31.7351 8.34756 31.7246 8.84406 31.7246C11.4776 31.7246 13.4562 32.1539 14.7809 33.0115C16.1078 33.8702 16.7712 35.0991 16.7712 36.6993C16.7712 38.0527 16.2747 39.2436 15.2838 40.2731C14.2918 41.3005 12.6513 41.9472 10.361 42.214C12.0787 42.3659 13.358 42.7373 14.1978 43.328C15.0366 43.9187 15.5806 44.8048 15.8289 45.9862L16.4881 48.9313C16.6402 49.694 16.8155 50.2267 17.0163 50.5305C17.2159 50.8343 17.498 50.9862 17.8614 50.9862C18.0895 50.9693 18.2839 50.9134 18.4445 50.8174C18.6072 50.7225 18.7952 50.56 19.0065 50.3322L19.4037 50.674ZM8.47221 32.2689C7.95669 32.2689 7.57851 32.3364 7.33976 32.4714C7.10313 32.6043 6.93622 32.8417 6.84115 33.1845C6.74502 33.5284 6.69748 34.0432 6.69748 34.7288V41.7584H7.92711C9.49268 41.7584 10.566 41.3448 11.147 40.5178C11.7301 39.6887 12.0217 38.52 12.0217 37.0115C12.0217 35.4503 11.7438 34.271 11.1892 33.4714C10.6367 32.6697 9.73142 32.2689 8.47221 32.2689Z" fill="#1F2122"/>
<path d="M38.5517 32.2689C37.92 32.3649 37.4573 32.5284 37.1615 32.7584C36.8657 32.9862 36.665 33.348 36.5615 33.8428C36.4569 34.3385 36.4051 35.0706 36.4051 36.0411V43.6149C36.4051 46.3407 36.0132 48.3607 35.2304 49.674C34.7149 50.5126 33.9691 51.1655 32.9951 51.6318C32.0232 52.098 30.8316 52.3322 29.4203 52.3322C27.2061 52.3322 25.4885 51.8554 24.2694 50.9018C23.3905 50.1993 22.7989 49.309 22.4947 48.2309C22.1904 47.1539 22.0383 45.6434 22.0383 43.6993V34.7288C22.0383 34.0031 21.9844 33.4788 21.8777 33.155C21.7731 32.8322 21.5735 32.6139 21.2777 32.501C20.9819 32.386 20.5192 32.309 19.8917 32.2689V31.6993C20.8636 31.7563 22.351 31.7837 24.3539 31.7837C26.3399 31.7837 27.8569 31.7563 28.9048 31.6993V32.2689C28.2171 32.309 27.7153 32.386 27.4005 32.501C27.0878 32.6139 26.8734 32.8322 26.7582 33.155C26.6452 33.4788 26.5892 34.0031 26.5892 34.7288V45.501C26.5892 47.501 26.8787 48.9736 27.4597 49.9187C28.0428 50.8617 29.0675 51.3322 30.5359 51.3322C32.4458 51.3322 33.7906 50.6898 34.5713 49.4039C35.354 48.116 35.746 46.2921 35.746 43.9314V36.3828C35.746 35.2805 35.6783 34.462 35.5431 33.9271C35.41 33.3934 35.1523 33.0073 34.7699 32.771C34.3896 32.5326 33.7895 32.3649 32.9698 32.2689V31.6993C33.6934 31.7563 34.7234 31.7837 36.0586 31.7837C37.1288 31.7837 37.9601 31.7563 38.5517 31.6993V32.2689ZM32.112 25.2394C32.3793 25.0875 32.675 25.0115 32.9993 25.0115C33.3036 25.0115 33.5835 25.0875 33.8402 25.2394C34.099 25.3913 34.2945 25.6012 34.4276 25.8681C34.5427 26.0601 34.6008 26.2795 34.6008 26.5263C34.6008 26.8111 34.5142 27.0822 34.3431 27.3406C34.1709 27.597 33.9332 27.8111 33.629 27.982C33.3416 28.1339 33.0057 28.2721 32.6233 28.3955C32.243 28.52 31.8342 28.6297 31.3979 28.7246C31.2627 28.7647 30.8369 28.8797 30.1218 29.0706C29.4055 29.2594 28.59 29.5252 27.6752 29.8681L27.4766 29.5263C28.4083 28.7447 29.3527 27.8406 30.3077 26.8132C30.7271 26.3744 31.0609 26.0453 31.3091 25.8259C31.5563 25.6065 31.8246 25.4113 32.112 25.2394Z" fill="#1F2122"/>
<path d="M47.7091 31.328C48.7 31.328 49.4923 31.424 50.0838 31.6149C50.6754 31.8037 51.2754 32.0791 51.8839 32.4419C52.0952 32.5548 52.2811 32.6508 52.4417 32.7288C52.6044 32.8048 52.7438 32.8428 52.86 32.8428C53.0312 32.8428 53.1643 32.7436 53.2572 32.5432C53.3523 32.3407 53.4305 32.0221 53.4896 31.5854H54.1446C54.0516 32.8596 54.0051 35.0316 54.0051 38.1002H53.346C53.2699 37.0706 53.0354 36.0896 52.6445 35.155C52.2526 34.2215 51.6991 33.4651 50.9839 32.885C50.2677 32.3027 49.4331 32.0115 48.4781 32.0115C47.5453 32.0115 46.7879 32.2753 46.2048 32.8006C45.6217 33.3238 45.3301 34.0326 45.3301 34.9272C45.3301 35.5938 45.4738 36.175 45.7611 36.6698C46.0484 37.1656 46.4478 37.6181 46.9612 38.0284C47.4767 38.4398 48.269 38.9968 49.3401 39.6993L50.2529 40.328C51.379 41.0706 52.2663 41.7194 52.915 42.2732C53.5625 42.8248 54.0918 43.4672 54.5038 44.2014C54.9147 44.9356 55.1207 45.7879 55.1207 46.7584C55.1207 47.9799 54.8048 49.0052 54.1742 49.8343C53.5456 50.6613 52.6921 51.2848 51.6135 51.7035C50.5339 52.1223 49.337 52.3322 48.0218 52.3322C46.9538 52.3322 46.0664 52.2362 45.3597 52.0453C44.6551 51.8544 44.0075 51.597 43.4159 51.2731C42.9955 51.0063 42.6701 50.8723 42.4398 50.8723C42.2676 50.8723 42.1335 50.9736 42.0384 51.1761C41.9454 51.3765 41.8694 51.694 41.8102 52.1297H41.1553C41.2313 50.9314 41.2694 48.3607 41.2694 44.4166H41.9243C42.0595 46.5495 42.537 48.2774 43.3568 49.6023C44.1765 50.9272 45.4357 51.5896 47.1344 51.5896C48.1654 51.5896 49.0148 51.3143 49.6824 50.7626C50.35 50.2088 50.6839 49.4166 50.6839 48.3871C50.6839 47.3217 50.3395 46.4071 49.6528 45.6445C48.9651 44.8829 47.8781 44.0242 46.3907 43.0706C45.2467 42.328 44.3308 41.6814 43.6441 41.1297C42.9564 40.5759 42.3934 39.9229 41.9539 39.1719C41.5144 38.4187 41.2947 37.5464 41.2947 36.5559C41.2947 35.4145 41.5863 34.4483 42.1694 33.6571C42.7525 32.867 43.53 32.2816 44.5019 31.9018C45.4738 31.52 46.5428 31.328 47.7091 31.328Z" fill="#1F2122"/>
<path d="M75.1795 31.6993C75.0464 33.5084 74.9809 35.1276 74.9809 36.5558C74.9809 37.4503 75.0084 38.175 75.0654 38.7288H74.4063C73.9499 36.386 73.3256 34.7373 72.5343 33.7837C71.7421 32.8301 70.6593 32.3533 69.2849 32.3533H68.6257V48.674C68.6257 49.4735 68.706 50.0537 68.8666 50.4166C69.0293 50.7794 69.3166 51.0231 69.7286 51.1465C70.1395 51.271 70.7934 51.3427 71.6892 51.3617V51.9313C69.286 51.8754 67.4732 51.847 66.251 51.847C65.0477 51.847 63.3026 51.8754 61.0155 51.9313V51.3617C61.9113 51.3427 62.5631 51.271 62.9719 51.1465C63.3829 51.0231 63.6692 50.7794 63.8297 50.4166C63.9924 50.0537 64.0748 49.4735 64.0748 48.674V32.3533H63.4452C62.5293 32.3533 61.7518 32.5548 61.1127 32.9567C60.4725 33.3565 59.9232 34.0189 59.4647 34.944C59.0084 35.867 58.6175 37.1286 58.2943 38.7288H57.6351C57.6942 38.175 57.7238 37.4503 57.7238 36.5558C57.7238 35.1276 57.6562 33.5084 57.521 31.6993C59.2587 31.7562 62.2071 31.7837 66.3651 31.7837C70.5251 31.7837 73.464 31.7562 75.1795 31.6993Z" fill="#1F2122"/>
<path d="M86.2545 32.2689C85.6058 32.309 85.1389 32.386 84.8516 32.501C84.5664 32.6138 84.3709 32.8322 84.2642 33.155C84.1596 33.4788 84.1079 34.0031 84.1079 34.7288V48.9018C84.1079 49.6254 84.1596 50.1497 84.2642 50.4757C84.3709 50.7995 84.5664 51.0189 84.8516 51.1339C85.1389 51.2467 85.6058 51.3227 86.2545 51.3617V51.9313C85.2234 51.8754 83.7825 51.847 81.9317 51.847C79.8918 51.847 78.3844 51.8754 77.4104 51.9313V51.3617C78.0411 51.3227 78.5048 51.2467 78.8006 51.1339C79.0964 51.0189 79.296 50.7995 79.4006 50.4757C79.5042 50.1497 79.557 49.6254 79.557 48.9018V34.7288C79.557 34.0031 79.5042 33.4788 79.4006 33.155C79.296 32.8322 79.0964 32.6138 78.8006 32.501C78.5048 32.386 78.0411 32.309 77.4104 32.2689V31.6993C78.3844 31.7562 79.8918 31.7837 81.9317 31.7837C83.7825 31.7837 85.2234 31.7562 86.2545 31.6993V32.2689Z" fill="#1F2122"/>
<path d="M99.0764 31.2985C100.219 31.2985 101.191 31.4609 101.992 31.7837C102.795 32.1075 103.578 32.5643 104.341 33.155C104.553 33.3269 104.734 33.4124 104.887 33.4124C105.267 33.4124 105.514 32.8417 105.63 31.6993H106.289C106.213 32.9936 106.175 35.2985 106.175 38.6149H105.516C105.344 37.2056 105.115 36.1297 104.827 35.3871C104.542 34.6423 104.056 33.9936 103.37 33.4419C102.893 32.9841 102.34 32.636 101.709 32.3997C101.077 32.1613 100.42 32.0411 99.7356 32.0411C97.8088 32.0411 96.3774 32.9799 95.4425 34.8554C94.5065 36.732 94.0396 39.0706 94.0396 41.8723C94.0396 44.655 94.5255 46.9799 95.4974 48.847C96.4714 50.712 97.9229 51.6445 99.8497 51.6445C100.497 51.6445 101.141 51.5263 101.781 51.29C102.42 51.0516 102.96 50.7025 103.399 50.2436C104.103 49.712 104.593 49.0474 104.87 48.2478C105.149 47.4461 105.364 46.2731 105.516 44.7288H106.175C106.175 48.1782 106.213 50.5791 106.289 51.9314H105.63C105.573 51.3217 105.492 50.8881 105.385 50.6318C105.281 50.3734 105.133 50.2436 104.941 50.2436C104.789 50.2436 104.589 50.3217 104.341 50.4757C103.482 51.0833 102.661 51.5453 101.878 51.8596C101.097 52.174 100.154 52.3322 99.0469 52.3322C97.0239 52.3322 95.2534 51.9229 93.7354 51.1044C92.2195 50.2837 91.0416 49.0959 90.2028 47.5432C89.363 45.9904 88.9436 44.1381 88.9436 41.9862C88.9436 39.8913 89.3725 38.0347 90.2324 36.4166C91.0912 34.7964 92.2881 33.539 93.8241 32.6445C95.359 31.7478 97.1095 31.2985 99.0764 31.2985Z" fill="#1F2122"/>
<path d="M119.767 31.2985C121.789 31.2985 123.558 31.7077 125.074 32.5263C126.592 33.3449 127.771 34.5305 128.611 36.0833C129.45 37.636 129.87 39.4904 129.87 41.6445C129.87 43.7404 129.44 45.598 128.581 47.2183C127.721 48.8364 126.525 50.0938 124.99 50.9904C123.454 51.885 121.703 52.3322 119.737 52.3322C117.714 52.3322 115.944 51.9229 114.426 51.1044C112.91 50.2837 111.732 49.0959 110.893 47.5432C110.053 45.9904 109.634 44.1381 109.634 41.9862C109.634 39.8913 110.063 38.0347 110.923 36.4166C111.782 34.7964 112.979 33.539 114.515 32.6445C116.049 31.7478 117.8 31.2985 119.767 31.2985ZM119.653 31.8132C118.602 31.8132 117.675 32.2383 116.872 33.0875C116.072 33.9345 115.458 35.1202 115.03 36.6445C114.601 38.1666 114.388 39.9092 114.388 41.8723C114.388 43.8533 114.63 45.5959 115.115 47.1001C115.602 48.6054 116.26 49.7689 117.088 50.5896C117.918 51.4082 118.839 51.8174 119.851 51.8174C120.901 51.8174 121.827 51.3945 122.628 50.5474C123.43 49.6982 124.045 48.5115 124.474 46.9862C124.902 45.462 125.116 43.7193 125.116 41.7584C125.116 39.7753 124.872 38.0316 124.385 36.5263C123.901 35.0221 123.242 33.8596 122.412 33.0411C121.584 32.2225 120.664 31.8132 119.653 31.8132Z" fill="#1F2122"/>
</svg>
