<svg width="38" height="31" viewBox="0 0 38 31" fill="none" xmlns="http://www.w3.org/2000/svg">
<path d="M9.12 30.24C7.36 30.24 5.92 29.88 4.8 29.16C3.68 28.44 2.76 27.52 2.04 26.4C1.16 25.12 0.6 23.72 0.36 22.2C0.12 20.68 0 19.44 0 18.48C0 14.56 1 11 3 7.80001C5 4.60001 8.12 2 12.36 0L13.44 2.16C10.96 3.2 8.8 4.84 6.96 7.08C5.2 9.32 4.32 11.6 4.32 13.92C4.32 14.88 4.44 15.72 4.68 16.44C5.96 15.4 7.44 14.88 9.12 14.88C11.2 14.88 13 15.56 14.52 16.92C16.04 18.28 16.8 20.16 16.8 22.56C16.8 24.8 16.04 26.64 14.52 28.08C13 29.52 11.2 30.24 9.12 30.24ZM29.52 30.24C27.76 30.24 26.32 29.88 25.2 29.16C24.08 28.44 23.16 27.52 22.44 26.4C21.56 25.12 21 23.72 20.76 22.2C20.52 20.68 20.4 19.44 20.4 18.48C20.4 14.56 21.4 11 23.4 7.80001C25.4 4.60001 28.52 2 32.76 0L33.84 2.16C31.36 3.2 29.2 4.84 27.36 7.08C25.6 9.32 24.72 11.6 24.72 13.92C24.72 14.88 24.84 15.72 25.08 16.44C26.36 15.4 27.84 14.88 29.52 14.88C31.6 14.88 33.4 15.56 34.92 16.92C36.44 18.28 37.2 20.16 37.2 22.56C37.2 24.8 36.44 26.64 34.92 28.08C33.4 29.52 31.6 30.24 29.52 30.24Z" fill="#473C38"/>
</svg>
